<svg xmlns="http://www.w3.org/2000/svg" viewBox="0 0 200 200">
  <!-- Фон -->
  <rect width="200" height="200" fill="#f5f5f5"/>
  
  <!-- Сертификат -->
  <rect x="40" y="50" width="120" height="90" rx="3" fill="white" stroke="#818cf8" stroke-width="3"/>
  
  <!-- Печать сертификата -->
  <circle cx="150" cy="120" r="15" fill="#f472b6" opacity="0.7"/>
  <circle cx="150" cy="120" r="10" fill="none" stroke="white" stroke-width="2"/>
  <path d="M145 118 L155 118 M145 122 L155 122" stroke="white" stroke-width="1"/>
  
  <!-- Линии на сертификате -->
  <rect x="50" y="70" width="80" height="2" rx="1" fill="#818cf8" opacity="0.6"/>
  <rect x="50" y="80" width="100" height="2" rx="1" fill="#818cf8" opacity="0.6"/>
  <rect x="50" y="90" width="90" height="2" rx="1" fill="#818cf8" opacity="0.6"/>
  <rect x="50" y="100" width="70" height="2" rx="1" fill="#818cf8" opacity="0.6"/>
  <rect x="50" y="110" width="60" height="2" rx="1" fill="#818cf8" opacity="0.6"/>
  
  <!-- IT элементы -->
  <rect x="140" y="60" width="10" height="10" rx="2" fill="#f472b6"/>
  <rect x="150" y="60" width="0" height="0" rx="0" fill="none" stroke="#f472b6" stroke-width="2"/>
  <rect x="140" y="70" width="0" height="0" rx="0" fill="none" stroke="#f472b6" stroke-width="2"/>
  <circle cx="145" cy="65" r="3" fill="white"/>
  
  <!-- Учебные материалы -->
  <rect x="40" y="150" width="30" height="35" rx="2" fill="#818cf8"/>
  <rect x="43" y="153" width="24" height="29" fill="white" opacity="0.7"/>
  <rect x="46" y="158" width="18" height="2" rx="1" fill="#818cf8"/>
  <rect x="46" y="163" width="18" height="2" rx="1" fill="#818cf8"/>
  <rect x="46" y="168" width="18" height="2" rx="1" fill="#818cf8"/>
  
  <rect x="75" y="155" width="25" height="30" rx="2" fill="#f472b6"/>
  <rect x="78" y="158" width="19" height="24" fill="white" opacity="0.7"/>
  <rect x="81" y="162" width="13" height="2" rx="1" fill="#f472b6"/>
  <rect x="81" y="167" width="13" height="2" rx="1" fill="#f472b6"/>
  <rect x="81" y="172" width="13" height="2" rx="1" fill="#f472b6"/>
  
  <rect x="105" y="160" width="20" height="25" rx="2" fill="#818cf8"/>
  <rect x="108" y="163" width="14" height="19" fill="white" opacity="0.7"/>
  <rect x="110" y="166" width="10" height="2" rx="1" fill="#818cf8"/>
  <rect x="110" y="171" width="10" height="2" rx="1" fill="#818cf8"/>
  
  <!-- Иконка образования -->
  <path d="M55 30 L100 15 L145 30 L100 45 Z" fill="#f472b6"/>
  <rect x="97" y="45" width="6" height="15" fill="#f472b6"/>
  <path d="M80 35 L80 50 C80 60, 120 60, 120 50 L120 35" fill="none" stroke="#f472b6" stroke-width="2"/>
</svg>
