<svg xmlns="http://www.w3.org/2000/svg" viewBox="0 0 200 200">
  <!-- Фон -->
  <rect width="200" height="200" fill="#f5f5f5"/>
  
  <!-- Текстовые пузыри -->
  <rect x="30" y="50" width="90" height="60" rx="10" fill="#818cf8"/>
  <polygon points="40,110 60,90 80,110" fill="#818cf8"/>
  
  <!-- Формальный текст в первом пузыре -->
  <rect x="40" y="60" width="70" height="5" rx="2" fill="white" opacity="0.8"/>
  <rect x="40" y="70" width="60" height="5" rx="2" fill="white" opacity="0.8"/>
  <rect x="40" y="80" width="65" height="5" rx="2" fill="white" opacity="0.8"/>
  <rect x="40" y="90" width="55" height="5" rx="2" fill="white" opacity="0.8"/>
  
  <!-- Преобразовательная стрелка -->
  <path d="M130 80 L155 80" stroke="#f472b6" stroke-width="4" stroke-linecap="round"/>
  <polygon points="150,75 160,80 150,85" fill="#f472b6"/>
  
  <!-- Разговорный пузырь -->
  <rect x="80" y="110" width="90" height="60" rx="10" fill="#f472b6"/>
  <polygon points="160,110 140,90 120,110" fill="#f472b6"/>
  
  <!-- Разговорный текст во втором пузыре -->
  <circle cx="100" cy="130" r="5" fill="white" opacity="0.8"/>
  <circle cx="115" cy="130" r="5" fill="white" opacity="0.8"/>
  <circle cx="130" cy="130" r="5" fill="white" opacity="0.8"/>
  <rect x="100" y="145" width="50" height="5" rx="2" fill="white" opacity="0.8"/>
  <rect x="100" y="155" width="40" height="5" rx="2" fill="white" opacity="0.8"/>
</svg>
